<svg width="28" height="28" viewBox="0 0 28 28" fill="none" xmlns="http://www.w3.org/2000/svg">
<mask id="mask0_140_11164" style="mask-type:alpha" maskUnits="userSpaceOnUse" x="0" y="0" width="28" height="28">
<rect width="28" height="28" fill="#D9D9D9"/>
</mask>
<g mask="url(#mask0_140_11164)">
<path d="M5.83333 24.5C5.19167 24.5 4.64236 24.2715 4.18542 23.8146C3.72847 23.3576 3.5 22.8083 3.5 22.1667V5.83333C3.5 5.19167 3.72847 4.64236 4.18542 4.18542C4.64236 3.72847 5.19167 3.5 5.83333 3.5H16.3333C15.9444 4.00556 15.6528 4.55972 15.4583 5.1625C15.2639 5.76528 15.1667 6.37778 15.1667 7C15.1667 8.61389 15.7354 9.98958 16.8729 11.1271C18.0104 12.2646 19.3861 12.8333 21 12.8333C21.6222 12.8333 22.2347 12.7361 22.8375 12.5417C23.4403 12.3472 23.9944 12.0556 24.5 11.6667V22.1667C24.5 22.8083 24.2715 23.3576 23.8146 23.8146C23.3576 24.2715 22.8083 24.5 22.1667 24.5H5.83333ZM7 19.8333H21L16.625 14L13.125 18.6667L10.5 15.1667L7 19.8333ZM19.8333 10.5V8.16667H17.5V5.83333H19.8333V3.5H22.1667V5.83333H24.5V8.16667H22.1667V10.5H19.8333Z" fill="#AEABAB"/>
</g>
</svg>
