<svg width="20" height="20" viewBox="0 0 20 20" fill="none" xmlns="http://www.w3.org/2000/svg">
<mask id="mask0_140_11130" style="mask-type:alpha" maskUnits="userSpaceOnUse" x="0" y="0" width="20" height="20">
<rect width="20" height="20" fill="#D9D9D9"/>
</mask>
<g mask="url(#mask0_140_11130)">
<path d="M12.9165 9.1665C13.2637 9.1665 13.5589 9.04498 13.8019 8.80192C14.045 8.55887 14.1665 8.26373 14.1665 7.9165C14.1665 7.56928 14.045 7.27414 13.8019 7.03109C13.5589 6.78803 13.2637 6.6665 12.9165 6.6665C12.5693 6.6665 12.2741 6.78803 12.0311 7.03109C11.788 7.27414 11.6665 7.56928 11.6665 7.9165C11.6665 8.26373 11.788 8.55887 12.0311 8.80192C12.2741 9.04498 12.5693 9.1665 12.9165 9.1665ZM7.08317 9.1665C7.43039 9.1665 7.72553 9.04498 7.96859 8.80192C8.21164 8.55887 8.33317 8.26373 8.33317 7.9165C8.33317 7.56928 8.21164 7.27414 7.96859 7.03109C7.72553 6.78803 7.43039 6.6665 7.08317 6.6665C6.73595 6.6665 6.44081 6.78803 6.19775 7.03109C5.9547 7.27414 5.83317 7.56928 5.83317 7.9165C5.83317 8.26373 5.9547 8.55887 6.19775 8.80192C6.44081 9.04498 6.73595 9.1665 7.08317 9.1665ZM12.5728 13.7811C13.3436 13.2464 13.9026 12.5415 14.2498 11.6665H5.74984C6.09706 12.5415 6.65609 13.2464 7.42692 13.7811C8.19775 14.3158 9.05539 14.5832 9.99984 14.5832C10.9443 14.5832 11.8019 14.3158 12.5728 13.7811ZM6.74984 17.6769C5.73595 17.2394 4.854 16.6457 4.104 15.8957C3.354 15.1457 2.76025 14.2637 2.32275 13.2498C1.88525 12.2359 1.6665 11.1526 1.6665 9.99984C1.6665 8.84706 1.88525 7.76373 2.32275 6.74984C2.76025 5.73595 3.354 4.854 4.104 4.104C4.854 3.354 5.73595 2.76025 6.74984 2.32275C7.76373 1.88525 8.84706 1.6665 9.99984 1.6665C11.1526 1.6665 12.2359 1.88525 13.2498 2.32275C14.2637 2.76025 15.1457 3.354 15.8957 4.104C16.6457 4.854 17.2394 5.73595 17.6769 6.74984C18.1144 7.76373 18.3332 8.84706 18.3332 9.99984C18.3332 11.1526 18.1144 12.2359 17.6769 13.2498C17.2394 14.2637 16.6457 15.1457 15.8957 15.8957C15.1457 16.6457 14.2637 17.2394 13.2498 17.6769C12.2359 18.1144 11.1526 18.3332 9.99984 18.3332C8.84706 18.3332 7.76373 18.1144 6.74984 17.6769Z" fill="#AEABAB"/>
</g>
</svg>
