<svg width="20" height="20" viewBox="0 0 20 20" fill="none" xmlns="http://www.w3.org/2000/svg">
<mask id="mask0_140_11073" style="mask-type:alpha" maskUnits="userSpaceOnUse" x="0" y="0" width="20" height="20">
<rect width="20" height="20" fill="#D9D9D9"/>
</mask>
<g mask="url(#mask0_140_11073)">
<path d="M12.6562 12.2397C13.3854 11.5106 13.75 10.6252 13.75 9.5835C13.75 8.54183 13.3854 7.65641 12.6562 6.92725C11.9271 6.19808 11.0417 5.8335 10 5.8335C8.95833 5.8335 8.07292 6.19808 7.34375 6.92725C6.61458 7.65641 6.25 8.54183 6.25 9.5835C6.25 10.6252 6.61458 11.5106 7.34375 12.2397C8.07292 12.9689 8.95833 13.3335 10 13.3335C11.0417 13.3335 11.9271 12.9689 12.6562 12.2397ZM8.40625 11.1772C7.96875 10.7397 7.75 10.2085 7.75 9.5835C7.75 8.9585 7.96875 8.42725 8.40625 7.98975C8.84375 7.55225 9.375 7.3335 10 7.3335C10.625 7.3335 11.1562 7.55225 11.5938 7.98975C12.0312 8.42725 12.25 8.9585 12.25 9.5835C12.25 10.2085 12.0312 10.7397 11.5938 11.1772C11.1562 11.6147 10.625 11.8335 10 11.8335C9.375 11.8335 8.84375 11.6147 8.40625 11.1772ZM4.90625 14.3335C3.37153 13.3335 2.15972 12.0141 1.27083 10.3752C1.20139 10.2502 1.14931 10.1217 1.11458 9.98975C1.07986 9.8578 1.0625 9.72238 1.0625 9.5835C1.0625 9.44461 1.07986 9.30919 1.11458 9.17725C1.14931 9.0453 1.20139 8.91683 1.27083 8.79183C2.15972 7.15294 3.37153 5.8335 4.90625 4.8335C6.44097 3.8335 8.13889 3.3335 10 3.3335C11.8611 3.3335 13.559 3.8335 15.0937 4.8335C16.6285 5.8335 17.8403 7.15294 18.7292 8.79183C18.7986 8.91683 18.8507 9.0453 18.8854 9.17725C18.9201 9.30919 18.9375 9.44461 18.9375 9.5835C18.9375 9.72238 18.9201 9.8578 18.8854 9.98975C18.8507 10.1217 18.7986 10.2502 18.7292 10.3752C17.8403 12.0141 16.6285 13.3335 15.0937 14.3335C13.559 15.3335 11.8611 15.8335 10 15.8335C8.13889 15.8335 6.44097 15.3335 4.90625 14.3335Z" fill="#AEABAB"/>
</g>
</svg>
